<svg width="210" height="40" viewBox="0 0 210 40" fill="none" xmlns="http://www.w3.org/2000/svg">
<g clip-path="url(#clip0_117_39)">
<rect width="210" height="40" rx="5" fill="#2E2E48"/>
<path d="M78.936 31.832L77.064 29.024C76.536 29.12 76 29.168 75.456 29.168C73.872 29.168 72.416 28.8 71.088 28.064C69.76 27.312 68.704 26.28 67.92 24.968C67.152 23.64 66.768 22.144 66.768 20.48C66.768 18.816 67.152 17.328 67.92 16.016C68.704 14.688 69.76 13.656 71.088 12.92C72.416 12.184 73.872 11.816 75.456 11.816C77.056 11.816 78.512 12.184 79.824 12.92C81.152 13.656 82.2 14.688 82.968 16.016C83.736 17.328 84.12 18.816 84.12 20.48C84.12 21.872 83.84 23.16 83.28 24.344C82.72 25.512 81.952 26.488 80.976 27.272L84.552 31.832H78.936ZM71.568 20.48C71.568 21.808 71.912 22.864 72.6 23.648C73.288 24.416 74.24 24.8 75.456 24.8C76.656 24.8 77.6 24.408 78.288 23.624C78.992 22.84 79.344 21.792 79.344 20.48C79.344 19.136 78.992 18.08 78.288 17.312C77.6 16.528 76.656 16.136 75.456 16.136C74.24 16.136 73.288 16.528 72.6 17.312C71.912 18.08 71.568 19.136 71.568 20.48ZM100.034 15.536V29H95.3061V27.08C94.9061 27.688 94.3541 28.184 93.6501 28.568C92.9461 28.936 92.1381 29.12 91.2261 29.12C89.6581 29.12 88.4181 28.608 87.5061 27.584C86.6101 26.544 86.1621 25.136 86.1621 23.36V15.536H90.8421V22.76C90.8421 23.528 91.0421 24.136 91.4421 24.584C91.8581 25.016 92.4021 25.232 93.0741 25.232C93.7621 25.232 94.3061 25.016 94.7061 24.584C95.1061 24.136 95.3061 23.528 95.3061 22.76V15.536H100.034ZM105.087 14.288C104.255 14.288 103.583 14.064 103.071 13.616C102.575 13.152 102.327 12.576 102.327 11.888C102.327 11.184 102.575 10.6 103.071 10.136C103.583 9.672 104.255 9.44 105.087 9.44C105.903 9.44 106.559 9.672 107.055 10.136C107.567 10.6 107.823 11.184 107.823 11.888C107.823 12.576 107.567 13.152 107.055 13.616C106.559 14.064 105.903 14.288 105.087 14.288ZM107.415 15.536V29H102.711V15.536H107.415ZM114.558 25.088H120.294V29H109.374V25.28L114.726 19.448H109.422V15.536H120.102V19.256L114.558 25.088ZM133.058 20.312C134.05 20.536 134.834 21.032 135.41 21.8C136.002 22.552 136.298 23.416 136.298 24.392C136.298 25.832 135.802 26.96 134.81 27.776C133.818 28.592 132.426 29 130.634 29H122.258V12.08H130.37C132.098 12.08 133.45 12.464 134.426 13.232C135.418 14 135.914 15.08 135.914 16.472C135.914 17.464 135.65 18.296 135.122 18.968C134.61 19.624 133.922 20.072 133.058 20.312ZM126.962 18.8H129.338C130.522 18.8 131.114 18.312 131.114 17.336C131.114 16.328 130.522 15.824 129.338 15.824H126.962V18.8ZM129.698 25.208C130.882 25.208 131.474 24.712 131.474 23.72C131.474 23.208 131.314 22.816 130.994 22.544C130.69 22.272 130.25 22.136 129.674 22.136H126.962V25.208H129.698ZM144.624 29.168C143.28 29.168 142.072 28.888 141 28.328C139.944 27.768 139.112 26.968 138.504 25.928C137.896 24.888 137.592 23.664 137.592 22.256C137.592 20.864 137.896 19.648 138.504 18.608C139.128 17.568 139.968 16.768 141.024 16.208C142.096 15.648 143.304 15.368 144.648 15.368C145.992 15.368 147.192 15.648 148.248 16.208C149.32 16.768 150.16 17.568 150.768 18.608C151.392 19.648 151.704 20.864 151.704 22.256C151.704 23.648 151.392 24.872 150.768 25.928C150.16 26.968 149.32 27.768 148.248 28.328C147.176 28.888 145.968 29.168 144.624 29.168ZM144.624 25.088C145.28 25.088 145.824 24.848 146.256 24.368C146.704 23.872 146.928 23.168 146.928 22.256C146.928 21.344 146.704 20.648 146.256 20.168C145.824 19.688 145.288 19.448 144.648 19.448C144.008 19.448 143.472 19.688 143.04 20.168C142.608 20.648 142.392 21.344 142.392 22.256C142.392 23.184 142.6 23.888 143.016 24.368C143.432 24.848 143.968 25.088 144.624 25.088ZM152.849 22.256C152.849 20.864 153.097 19.648 153.593 18.608C154.105 17.568 154.793 16.768 155.657 16.208C156.537 15.648 157.513 15.368 158.585 15.368C159.513 15.368 160.313 15.552 160.985 15.92C161.657 16.288 162.177 16.784 162.545 17.408V15.536H167.249V29H162.545V27.128C162.177 27.752 161.649 28.248 160.961 28.616C160.289 28.984 159.497 29.168 158.585 29.168C157.513 29.168 156.537 28.888 155.657 28.328C154.793 27.768 154.105 26.968 153.593 25.928C153.097 24.872 152.849 23.648 152.849 22.256ZM162.545 22.256C162.545 21.392 162.305 20.712 161.825 20.216C161.361 19.72 160.785 19.472 160.097 19.472C159.393 19.472 158.809 19.72 158.345 20.216C157.881 20.696 157.649 21.376 157.649 22.256C157.649 23.12 157.881 23.808 158.345 24.32C158.809 24.816 159.393 25.064 160.097 25.064C160.785 25.064 161.361 24.816 161.825 24.32C162.305 23.824 162.545 23.136 162.545 22.256ZM174.634 17.912C175.162 17.144 175.802 16.536 176.554 16.088C177.306 15.64 178.114 15.416 178.978 15.416V20.432H177.658C176.634 20.432 175.874 20.632 175.378 21.032C174.882 21.432 174.634 22.128 174.634 23.12V29H169.93V15.536H174.634V17.912ZM179.896 22.256C179.896 20.864 180.144 19.648 180.64 18.608C181.152 17.568 181.848 16.768 182.728 16.208C183.608 15.648 184.584 15.368 185.656 15.368C186.52 15.368 187.288 15.552 187.96 15.92C188.648 16.272 189.184 16.76 189.568 17.384V11.24H194.296V29H189.568V27.128C189.2 27.752 188.68 28.248 188.008 28.616C187.336 28.984 186.544 29.168 185.632 29.168C184.56 29.168 183.584 28.888 182.704 28.328C181.84 27.768 181.152 26.968 180.64 25.928C180.144 24.872 179.896 23.648 179.896 22.256ZM189.592 22.256C189.592 21.392 189.352 20.712 188.872 20.216C188.408 19.72 187.832 19.472 187.144 19.472C186.44 19.472 185.856 19.72 185.392 20.216C184.928 20.696 184.696 21.376 184.696 22.256C184.696 23.12 184.928 23.808 185.392 24.32C185.856 24.816 186.44 25.064 187.144 25.064C187.832 25.064 188.408 24.816 188.872 24.32C189.352 23.824 189.592 23.136 189.592 22.256Z" fill="white"/>
<path d="M57.0431 29.6644C59.0911 27.9319 59.9551 24.7874 60.0001 23.1464V22.8724C60.0001 22.5059 59.9091 22.2354 59.8206 22.0979C59.4106 21.5979 56.4046 21.1399 53.8126 21.9144C53.1153 22.1327 52.4553 22.4558 51.8551 22.8724C51.4001 23.1934 51.4911 23.5999 51.9466 23.5559C52.4466 23.4629 53.0846 23.4204 53.8126 23.3254C55.4056 23.1924 57.2711 23.1464 57.7256 23.7369C58.3606 24.5109 56.9976 27.8849 56.4041 29.3444C56.2246 29.8024 56.6331 29.9849 57.0431 29.6644ZM15.2256 23.1464C21.0946 28.4794 28.8296 31.6714 37.4771 31.6714C42.8466 31.6714 49.0331 30.1659 53.8126 27.2954C54.4604 26.9262 55.0833 26.5149 55.6771 26.0639C56.4971 25.4729 55.7691 24.5579 54.9496 24.9219C54.5856 25.0589 54.1761 25.2429 53.8136 25.3794C48.5776 27.4319 43.0756 28.3899 37.9776 28.3899C29.8771 28.3899 22.0516 26.1539 15.7261 22.4629C15.1341 22.1454 14.7236 22.7354 15.2256 23.1464Z" fill="white"/>
<path d="M42.8308 8.73921C41.8821 7.81134 40.3608 7.82827 39.4329 8.77702L38.1246 10.1148C38.1362 10.1246 38.1475 10.1349 38.1586 10.1457L41.5288 13.4417C41.5398 13.4525 41.5503 13.4635 41.5603 13.4749L42.8686 12.1371C43.7965 11.1884 43.7796 9.66707 42.8308 8.73921Z" fill="white"/>
<path d="M40.6887 14.3662C40.6771 14.3564 40.6658 14.3461 40.6548 14.3353L37.2846 11.0393C37.2736 11.0285 37.2631 11.0175 37.253 11.0061L29.3527 19.0841C28.4248 20.0329 28.4418 21.5542 29.3905 22.4821C30.3393 23.4099 31.8605 23.393 32.7884 22.4443L40.6887 14.3662Z" fill="white"/>
<path d="M44.2255 18.9372C44.5683 19.0676 44.5737 19.5488 44.2339 19.6867L43.3252 20.0555C43.2214 20.0976 43.1399 20.1807 43.0999 20.285L42.7501 21.1983C42.6193 21.5398 42.1362 21.5452 41.9979 21.2067L41.6278 20.3014C41.5855 20.198 41.5021 20.1168 41.3975 20.0769L40.4808 19.7285C40.138 19.5982 40.1327 19.1169 40.4725 18.979L41.3812 18.6103C41.4849 18.5681 41.5665 18.485 41.6064 18.3808L41.9562 17.4675C42.0871 17.1259 42.5701 17.1205 42.7085 17.4591L43.0786 18.3644C43.1208 18.4677 43.2042 18.549 43.3089 18.5888L44.2255 18.9372Z" fill="white"/>
<path d="M38.5766 22.223C38.9193 22.3532 38.9247 22.8346 38.5849 22.9724L38.2536 23.1069C38.1498 23.149 38.0683 23.2321 38.0283 23.3364L37.9008 23.6693C37.7699 24.0109 37.2869 24.0163 37.1485 23.6777L37.0136 23.3477C36.9714 23.2443 36.888 23.1631 36.7833 23.1232L36.4491 22.9962C36.1063 22.8659 36.1009 22.3846 36.4407 22.2467L36.7721 22.1123C36.8758 22.0701 36.9574 21.9871 36.9973 21.8828L37.1249 21.5498C37.2556 21.2083 37.7387 21.2029 37.8771 21.5414L38.012 21.8715C38.0543 21.9749 38.1377 22.0561 38.2423 22.0959L38.5766 22.223Z" fill="white"/>
<path d="M33.2911 9.91935C33.6339 10.0497 33.6393 10.5309 33.2995 10.6688L32.9682 10.8033C32.8644 10.8454 32.7828 10.9285 32.7429 11.0328L32.6154 11.3658C32.4846 11.7073 32.0015 11.7127 31.8632 11.3741L31.7282 11.044C31.686 10.9407 31.6026 10.8594 31.4979 10.8196L31.1637 10.6926C30.8209 10.5623 30.8155 10.081 31.1554 9.94312L31.4866 9.80866C31.5904 9.76655 31.672 9.68345 31.7119 9.57918L31.8395 9.24618C31.9703 8.90464 32.4533 8.89926 32.5917 9.23781L32.7266 9.56789C32.7689 9.67125 32.8523 9.75251 32.957 9.7923L33.2911 9.91935Z" fill="white"/>
<path d="M46.6094 24.3482L46.6094 22.2556L46.6094 20.1629L48.2026 20.1629C48.6843 20.1629 49.0563 20.2606 49.3187 20.4559C49.5809 20.6512 49.7121 20.9274 49.7121 21.2846C49.7121 21.4836 49.6674 21.6613 49.5781 21.8175C49.4888 21.9719 49.3679 22.0928 49.2154 22.1802C49.4423 22.2546 49.6181 22.3755 49.7428 22.543C49.8674 22.7104 49.9297 22.9159 49.9297 23.1596C49.9297 23.4014 49.8711 23.6116 49.7539 23.7902C49.6367 23.9669 49.4702 24.1045 49.2545 24.2031C49.0387 24.2999 48.7839 24.3482 48.49 24.3482L47.5497 24.3482L46.6094 24.3482ZM47.7143 21.851L48.1272 21.851C48.2853 21.851 48.4072 21.8194 48.4927 21.7561C48.5802 21.691 48.6239 21.5989 48.6239 21.4799C48.6239 21.3702 48.5802 21.2837 48.4927 21.2204C48.4053 21.1572 48.2835 21.1255 48.1272 21.1255L47.7143 21.1255L47.7143 21.851ZM47.7143 23.3856L48.2026 23.3856C48.3291 23.3856 48.4369 23.3716 48.5262 23.3437C48.6155 23.314 48.6834 23.2721 48.7299 23.2182C48.7764 23.1624 48.7997 23.0954 48.7997 23.0173C48.7997 22.9392 48.7792 22.8741 48.7383 22.822C48.6974 22.768 48.6369 22.728 48.5569 22.702C48.4788 22.6741 48.383 22.6601 48.2695 22.6601L47.7143 22.6601L47.7143 23.3856Z" fill="white"/>
<path d="M30.2701 15.2305C30.0079 15.1709 29.7754 15.1105 29.5726 15.0491C29.3698 14.9896 29.1764 14.9217 28.9922 14.8455C28.8099 14.7692 28.6137 14.678 28.4035 14.572H28.2724C27.9524 14.572 27.6567 14.518 27.3851 14.4102C27.1154 14.3004 26.8801 14.1479 26.6792 13.9526C26.4802 13.7572 26.3258 13.5276 26.216 13.2634C26.1063 12.9993 26.0514 12.7109 26.0514 12.3984C26.0514 12.0859 26.1063 11.7976 26.216 11.5335C26.3258 11.2694 26.4802 11.0396 26.6792 10.8443C26.8801 10.6471 27.1154 10.4946 27.3851 10.3867C27.6567 10.277 27.9534 10.2221 28.2752 10.2221C28.5951 10.2221 28.8899 10.277 29.1597 10.3867C29.4294 10.4946 29.6628 10.6471 29.86 10.8443C30.059 11.0396 30.2134 11.2694 30.3232 11.5335C30.4329 11.7976 30.4878 12.0859 30.4878 12.3984C30.4878 12.6663 30.4459 12.9183 30.3622 13.1546C30.2804 13.389 30.1641 13.6001 30.0134 13.788C29.8628 13.974 29.6833 14.1293 29.475 14.2539C29.5866 14.2744 29.6963 14.293 29.8042 14.3097C29.9139 14.3246 30.0265 14.3367 30.1418 14.346C30.2571 14.3553 30.3799 14.3627 30.5101 14.3683L30.2701 15.2305ZM28.2724 13.6122C28.4268 13.6122 28.57 13.5815 28.7021 13.5201C28.8341 13.4587 28.9485 13.3731 29.0452 13.2634C29.1438 13.1518 29.2201 13.0225 29.2741 12.8756C29.3299 12.7286 29.3577 12.5696 29.3577 12.3984C29.3577 12.2273 29.3299 12.0683 29.2741 11.9213C29.2201 11.7744 29.1438 11.646 29.0452 11.5363C28.9485 11.4247 28.8341 11.3382 28.7021 11.2768C28.57 11.2154 28.4268 11.1847 28.2724 11.1847C28.118 11.1847 27.9738 11.2154 27.8399 11.2768C27.8313 11.2808 27.8228 11.2849 27.8144 11.2891C27.6929 11.3495 27.5861 11.4319 27.4939 11.5363C27.3953 11.646 27.3181 11.7744 27.2623 11.9213C27.2084 12.0683 27.1814 12.2273 27.1814 12.3984C27.1814 12.5696 27.2084 12.7286 27.2623 12.8756C27.3181 13.0225 27.3953 13.1518 27.4939 13.2634C27.5925 13.3731 27.7078 13.4587 27.8399 13.5201C27.9738 13.5815 28.118 13.6122 28.2724 13.6122Z" fill="white"/>
</g>
<defs>
<clipPath id="clip0_117_39">
<rect width="210" height="40" rx="5" fill="white"/>
</clipPath>
</defs>
</svg>
