<svg width="25" height="25" viewBox="0 0 25 25" fill="none" xmlns="http://www.w3.org/2000/svg">
<path d="M20.4922 4.25762C21.599 5.4066 21.5681 7.23201 20.4232 8.33477L18.809 9.88969C18.7973 9.87567 18.785 9.86196 18.7722 9.8486L14.8406 5.76708C14.8278 5.75376 14.8146 5.74102 14.8011 5.72885L16.4153 4.17393C17.5602 3.07116 19.3854 3.10863 20.4922 4.25762Z" fill="white"/>
<path d="M13.7256 6.76488C13.7372 6.77886 13.7495 6.79254 13.7624 6.80586L17.6938 10.8873C17.7067 10.9007 17.7199 10.9135 17.7335 10.9257L7.98583 20.3152C6.84093 21.418 5.01571 21.3805 3.90889 20.2315C2.80217 19.0825 2.83304 17.2571 3.97785 16.1543L13.7256 6.76488Z" fill="white"/>
<path d="M8.26515 2.46901C8.11111 2.05617 7.53373 2.04432 7.36594 2.45055L6.9171 3.53684C6.8658 3.66086 6.76555 3.75781 6.64014 3.80457L5.54186 4.21408C5.13112 4.36722 5.12132 4.9468 5.5266 5.11669L6.61026 5.57101C6.734 5.62288 6.83091 5.72386 6.87798 5.84991L7.28967 6.95386C7.44371 7.3667 8.02109 7.37855 8.18898 6.97233L8.63771 5.88603C8.68902 5.76201 8.78927 5.66507 8.91468 5.61831L10.013 5.20879C10.4237 5.05565 10.4335 4.47607 10.0282 4.30618L8.94455 3.85187C8.82081 3.8 8.72391 3.699 8.67683 3.57296L8.26515 2.46901Z" fill="white"/>
<path d="M4.28347 9.21089C4.12953 8.79806 3.55206 8.78621 3.38426 9.19243L3.22064 9.5885C3.16934 9.71252 3.06909 9.80947 2.94368 9.85622L2.5433 10.0055C2.13255 10.1587 2.12275 10.7383 2.52803 10.9082L2.92309 11.0738C3.04683 11.1256 3.14373 11.2267 3.19081 11.3526L3.34092 11.7552C3.49486 12.1681 4.07234 12.1799 4.24013 11.7737L4.40375 11.3775C4.45505 11.2536 4.55531 11.1566 4.68071 11.1099L5.0812 10.9606C5.49184 10.8075 5.50164 10.2278 5.09646 10.0579L4.70131 9.8923C4.57757 9.84044 4.48066 9.73944 4.43359 9.6134L4.28347 9.21089Z" fill="white"/>
<path d="M19.0098 15.6922C18.8558 15.2794 18.2784 15.2675 18.1106 15.6738L17.9469 16.0698C17.8957 16.1939 17.7954 16.2908 17.67 16.3376L17.2696 16.4869C16.8588 16.64 16.849 17.2196 17.2543 17.3894L17.6494 17.5551C17.7732 17.6069 17.8701 17.7079 17.9171 17.834L18.0672 18.2365C18.2212 18.6493 18.7986 18.6612 18.9664 18.255L19.1301 17.8589C19.1813 17.7349 19.2816 17.6379 19.407 17.5912L19.8075 17.4419C20.2182 17.2888 20.228 16.7091 19.8227 16.5393L19.4276 16.3736C19.3039 16.3218 19.2069 16.2208 19.1599 16.0947L19.0098 15.6922Z" fill="white"/>
</svg>
