<svg width="25" height="24" viewBox="0 0 25 24" fill="none" xmlns="http://www.w3.org/2000/svg">
<g clip-path="url(#clip0_103_498)">
<path d="M12.4956 22.5C13.8019 22.5 14.8706 21.4615 14.8706 20.1923H10.1206C10.1206 21.4615 11.1894 22.5 12.4956 22.5ZM19.6206 15.5769V9.80769C19.6206 6.26539 17.685 3.3 14.2769 2.51538V1.73077C14.2769 0.773077 13.4812 0 12.4956 0C11.51 0 10.7144 0.773077 10.7144 1.73077V2.51538C7.31811 3.3 5.37061 6.25385 5.37061 9.80769V15.5769L2.99561 17.8846V19.0385H21.9956V17.8846L19.6206 15.5769ZM17.2456 16.7308H7.74561V9.80769C7.74561 6.94615 9.53873 4.61538 12.4956 4.61538C15.4525 4.61538 17.2456 6.94615 17.2456 9.80769V16.7308Z" stroke="black" stroke-opacity="0.5"/>
</g>
<defs>
<clipPath id="clip0_103_498">
<rect width="24" height="24" fill="white" transform="translate(0.0756836)"/>
</clipPath>
</defs>
</svg>
