<svg width="25" height="24" viewBox="0 0 25 24" fill="none" xmlns="http://www.w3.org/2000/svg">
<path d="M8.38636 9.35714H8.88636V8.85714V5.71429C8.88636 3.40336 10.8044 1.5 13.1591 1.5C15.5138 1.5 17.4318 3.40336 17.4318 5.71429V8.85714V9.35714H17.9318C19.0138 9.35714 19.8182 10.1605 19.8182 11.2143V11.7143H20.3182C21.0282 11.7143 21.632 12.0285 22.2185 12.5354C22.7261 12.9742 23 13.6897 23 14.3571C23 15.004 22.7391 15.6631 22.1941 16.2014L22.1822 16.2131L22.1712 16.2256C21.7228 16.7318 21.0718 17 20.3182 17H20.1591H19.7602L19.6716 17.389C19.0076 20.3036 16.3468 22.5 13.1591 22.5C11.3732 22.5 9.67248 21.839 8.41955 20.6014C7.16696 19.3642 6.5 17.6872 6.5 15.9286V11.2143C6.5 10.1605 7.30441 9.35714 8.38636 9.35714ZM19.5877 16.3189L19.6141 16.3287L19.6415 16.3354C20.4204 16.5278 21.2435 16.346 21.7832 15.8129C22.1928 15.4083 22.4091 14.8888 22.4091 14.3571C22.4091 13.8255 22.1928 13.306 21.7832 12.9014C21.3737 12.497 20.8507 12.2857 20.3182 12.2857C20.3115 12.2857 20.3046 12.2857 20.2974 12.2857C20.1531 12.2854 19.9071 12.2848 19.6533 12.4C19.345 12.5078 19.0542 12.7029 18.8532 12.9014C18.4436 13.306 18.2273 13.8255 18.2273 14.3571C18.2273 15.2761 18.7577 16.0114 19.5877 16.3189ZM19.0023 12.1033L19.2273 11.9551V11.6857V11.2143C19.2273 10.8631 19.1064 10.5324 18.8599 10.2889C18.6139 10.046 18.2822 9.92857 17.9318 9.92857H8.38636C8.03594 9.92857 7.70425 10.046 7.45829 10.2889C7.21178 10.5324 7.09091 10.8631 7.09091 11.2143V15.9286C7.09091 17.5451 7.6944 19.0907 8.83045 20.2129L8.83703 20.2194L8.84385 20.2256C10.0456 21.3279 11.5171 21.9286 13.1591 21.9286C16.1013 21.9286 18.5369 19.8745 19.0594 17.1218L19.1179 16.8136L18.8658 16.6268C18.307 16.2128 17.8988 15.6707 17.6943 14.9976L17.5866 14.6429H17.2159H13.9545H13.4545V15.1429V15.9286C13.4545 16.0488 13.4163 16.111 13.3844 16.1425C13.352 16.1745 13.2859 16.2143 13.1591 16.2143C13.0322 16.2143 12.9662 16.1745 12.9338 16.1425C12.9019 16.111 12.8636 16.0488 12.8636 15.9286V15.1429V14.6429H12.3636H10.7727H10.2727V15.1429V15.9286C10.2727 16.0488 10.2345 16.111 10.2026 16.1425C10.1702 16.1745 10.1041 16.2143 9.97727 16.2143C9.85042 16.2143 9.78438 16.1745 9.75194 16.1425C9.72004 16.111 9.68182 16.0488 9.68182 15.9286V14.3571C9.68182 14.2369 9.72004 14.1747 9.75194 14.1432C9.78438 14.1112 9.85042 14.0714 9.97727 14.0714H17.2955H17.7283L17.7903 13.643C17.8483 13.2421 18.0859 12.8649 18.4423 12.5129C18.5585 12.398 18.7492 12.2699 19.0023 12.1033ZM9.47727 8.85714V9.35714H9.97727H16.3409H16.8409V8.85714V5.71429C16.8409 3.70378 15.1794 2.07143 13.1591 2.07143C11.1388 2.07143 9.47727 3.70378 9.47727 5.71429V8.85714Z" stroke="black" stroke-opacity="0.5"/>
</svg>
