<svg width="27" height="26" viewBox="0 0 27 26" fill="none" xmlns="http://www.w3.org/2000/svg">
<path d="M13.4338 1C6.58474 1 0.980957 6.4 0.980957 13C0.980957 19.6 6.58474 25 13.4338 25C20.2829 25 25.8867 19.6 25.8867 13C25.8867 6.4 20.2829 1 13.4338 1ZM13.4338 5.66667C14.9558 5.66667 16.2011 6.86667 16.2011 8.33333C16.2011 9.8 14.9558 11 13.4338 11C11.9118 11 10.6665 9.8 10.6665 8.33333C10.6665 6.86667 11.9118 5.66667 13.4338 5.66667ZM6.51556 19.6667C6.51556 16 9.62878 13 13.4338 13C17.2389 13 20.3521 16 20.3521 19.6667H6.51556Z" stroke="black" stroke-opacity="0.5"/>
</svg>
