<svg width="93" height="61" viewBox="0 0 93 61" fill="none" xmlns="http://www.w3.org/2000/svg">
<rect width="93" height="61" rx="5" fill="white"/>
<rect x="0.38528" y="0.38528" width="92.2294" height="60.2294" rx="4.61472" stroke="#5F5FA7" stroke-opacity="0.37" stroke-width="0.770559"/>
<path d="M62.417 42.3045L62.417 39.3329L62.417 36.3614L64.998 36.3614C65.7784 36.3614 66.3811 36.5001 66.806 36.7774C67.2309 37.0547 67.4433 37.447 67.4433 37.9541C67.4433 38.2368 67.371 38.489 67.2264 38.7109C67.0817 38.9301 66.8859 39.1018 66.6388 39.226C67.0064 39.3316 67.2912 39.5033 67.4931 39.741C67.6949 39.9787 67.7959 40.2706 67.7959 40.6166C67.7959 40.96 67.7009 41.2585 67.5112 41.5121C67.3213 41.763 67.0516 41.9585 66.702 42.0984C66.3525 42.2358 65.9396 42.3045 65.4635 42.3045L63.9403 42.3045L62.417 42.3045ZM64.2069 38.7584L64.8759 38.7584C65.1321 38.7584 65.3294 38.7135 65.4681 38.6237C65.6097 38.5313 65.6805 38.4005 65.6805 38.2315C65.6805 38.0756 65.6097 37.9528 65.4681 37.863C65.3264 37.7732 65.129 37.7283 64.8759 37.7283L64.2069 37.7283L64.2069 38.7584ZM64.2069 40.9376L64.998 40.9376C65.2029 40.9376 65.3777 40.9178 65.5223 40.8781C65.6669 40.8358 65.7769 40.7764 65.8523 40.6999C65.9276 40.6206 65.9653 40.5255 65.9653 40.4146C65.9653 40.3036 65.9321 40.2112 65.8658 40.1372C65.7995 40.0606 65.7016 40.0038 65.572 39.9669C65.4455 39.9272 65.2903 39.9074 65.1064 39.9074L64.2069 39.9074L64.2069 40.9376Z" fill="black"/>
<path d="M78.1098 49.5935C81.4276 47.1333 82.8273 42.6681 82.9002 40.3379V39.9488C82.9002 39.4284 82.7528 39.0443 82.6094 38.8491C81.9452 38.1391 77.0755 37.4887 72.8764 38.5885C71.7469 38.8985 70.6776 39.3572 69.7053 39.9488C68.9682 40.4047 69.1156 40.9819 69.8535 40.9194C70.6635 40.7874 71.6971 40.727 72.8764 40.5921C75.4571 40.4032 78.4792 40.3379 79.2155 41.1764C80.2442 42.2755 78.0361 47.0666 77.0747 49.1391C76.7839 49.7894 77.4456 50.0486 78.1098 49.5935ZM10.3655 40.3379C19.8733 47.9108 32.404 52.4434 46.4129 52.4434C55.1115 52.4434 65.1336 50.3056 72.8764 46.2295C73.9259 45.7053 74.9349 45.1211 75.8969 44.4808C77.2253 43.6416 76.046 42.3423 74.7184 42.8591C74.1287 43.0537 73.4653 43.315 72.8781 43.5088C64.3957 46.4233 55.4825 47.7837 47.2237 47.7837C34.1009 47.7837 21.4236 44.6086 11.1763 39.3674C10.2173 38.9165 9.55225 39.7543 10.3655 40.3379Z" fill="black"/>
<g clip-path="url(#clip0_310_50)">
<path d="M57.2657 17.5997C55.7287 16.2821 53.2642 16.3062 51.7611 17.6534L49.6416 19.553C49.6604 19.5669 49.6788 19.5816 49.6967 19.5969L55.1564 24.2772C55.1742 24.2925 55.1913 24.3082 55.2075 24.3243L57.327 22.4247C58.8301 21.0775 58.8027 18.9173 57.2657 17.5997Z" fill="black"/>
<path d="M53.7956 25.59C53.7769 25.5761 53.7586 25.5615 53.7408 25.5462L48.2811 20.8659C48.2632 20.8506 48.2461 20.8348 48.2298 20.8186L35.4313 32.2895C33.9282 33.6368 33.9556 35.797 35.4925 37.1146C37.0296 38.4321 39.494 38.4081 40.9972 37.0609L53.7956 25.59Z" fill="black"/>
<path d="M59.5251 32.0808C60.0804 32.266 60.0891 32.9493 59.5386 33.1451L58.0665 33.6688C57.8984 33.7286 57.7663 33.8466 57.7016 33.9947L57.1349 35.2915C56.9229 35.7766 56.1404 35.7842 55.9162 35.3034L55.3167 34.0179C55.2482 33.8712 55.1132 33.7558 54.9436 33.6992L53.4586 33.2045C52.9033 33.0194 52.8946 32.336 53.4451 32.1401L54.9172 31.6166C55.0852 31.5567 55.2174 31.4387 55.2821 31.2906L55.8488 29.9938C56.0608 29.5088 56.8432 29.5011 57.0674 29.9819L57.667 31.2674C57.7354 31.4142 57.8705 31.5295 58.0401 31.5861L59.5251 32.0808Z" fill="black"/>
<path d="M50.3738 36.7466C50.9291 36.9316 50.9378 37.615 50.3873 37.8108L49.8506 38.0017C49.6825 38.0616 49.5504 38.1796 49.4857 38.3276L49.2791 38.8004C49.0671 39.2854 48.2846 39.2931 48.0604 38.8123L47.8418 38.3437C47.7734 38.1969 47.6383 38.0815 47.4688 38.025L46.9273 37.8446C46.372 37.6596 46.3633 36.9761 46.9138 36.7803L47.4506 36.5894C47.6186 36.5296 47.7508 36.4116 47.8154 36.2635L48.0221 35.7906C48.234 35.3057 49.0165 35.2981 49.2407 35.7787L49.4593 36.2475C49.5277 36.3943 49.6628 36.5096 49.8324 36.5662L50.3738 36.7466Z" fill="black"/>
<path d="M41.8118 19.2755C42.3671 19.4605 42.3758 20.1439 41.8253 20.3397L41.2886 20.5306C41.1205 20.5904 40.9884 20.7084 40.9237 20.8565L40.717 21.3293C40.5052 21.8143 39.7226 21.822 39.4985 21.3412L39.2799 20.8725C39.2115 20.7258 39.0763 20.6104 38.9067 20.5539L38.3653 20.3734C37.81 20.1884 37.8013 19.505 38.3518 19.3092L38.8885 19.1183C39.0566 19.0585 39.1888 18.9405 39.2535 18.7924L39.4601 18.3196C39.672 17.8346 40.4545 17.8269 40.6787 18.3077L40.8973 18.7764C40.9657 18.9232 41.1008 19.0385 41.2704 19.095L41.8118 19.2755Z" fill="black"/>
</g>
<path d="M37.3476 27.8472C36.9227 27.7627 36.546 27.6769 36.2175 27.5897C35.8891 27.5052 35.5757 27.4088 35.2774 27.3005C34.982 27.1922 34.6641 27.0628 34.3236 26.9122H34.1112C33.5929 26.9122 33.1137 26.8356 32.6738 26.6824C32.2368 26.5265 31.8557 26.3099 31.5302 26.0326C31.2078 25.7552 30.9577 25.4291 30.7799 25.054C30.6021 24.6789 30.5132 24.2695 30.5132 23.8258C30.5132 23.382 30.6021 22.9726 30.7799 22.5975C30.9577 22.2224 31.2078 21.8962 31.5302 21.6189C31.8557 21.3389 32.2368 21.1223 32.6738 20.9691C33.1137 20.8133 33.5944 20.7354 34.1157 20.7354C34.634 20.7354 35.1116 20.8133 35.5486 20.9691C35.9855 21.1223 36.3637 21.3389 36.6831 21.6189C37.0056 21.8962 37.2556 22.2224 37.4335 22.5975C37.6112 22.9726 37.7001 23.382 37.7001 23.8258C37.7001 24.2061 37.6324 24.564 37.4967 24.8995C37.3641 25.2323 37.1758 25.5321 36.9317 25.7989C36.6876 26.063 36.3968 26.2836 36.0594 26.4606C36.2402 26.4896 36.4179 26.516 36.5927 26.5398C36.7705 26.5609 36.9528 26.5781 37.1396 26.5913C37.3264 26.6045 37.5253 26.615 37.7363 26.623L37.3476 27.8472ZM34.1112 25.5492C34.3613 25.5492 34.5933 25.5057 34.8073 25.4185C35.0212 25.3313 35.2065 25.2098 35.3632 25.054C35.523 24.8955 35.6465 24.7119 35.7339 24.5033C35.8243 24.2946 35.8695 24.0688 35.8695 23.8258C35.8695 23.5827 35.8243 23.3569 35.7339 23.1482C35.6465 22.9396 35.523 22.7573 35.3632 22.6015C35.2065 22.443 35.0212 22.3202 34.8073 22.233C34.5933 22.1458 34.3613 22.1023 34.1112 22.1023C33.8611 22.1023 33.6275 22.1458 33.4106 22.233C33.3967 22.2387 33.3829 22.2445 33.3692 22.2505C33.1724 22.3363 32.9994 22.4533 32.8501 22.6015C32.6904 22.7573 32.5653 22.9396 32.4749 23.1482C32.3875 23.3569 32.3438 23.5827 32.3438 23.8258C32.3438 24.0688 32.3875 24.2946 32.4749 24.5033C32.5653 24.7119 32.6904 24.8955 32.8501 25.054C33.0098 25.2098 33.1966 25.3313 33.4106 25.4185C33.6275 25.5057 33.8611 25.5492 34.1112 25.5492Z" fill="black"/>
<defs>
<clipPath id="clip0_310_50">
<rect width="28.4005" height="32.3995" fill="white" transform="matrix(0.0126944 0.999919 -0.999952 0.00975378 62.3979 13)"/>
</clipPath>
</defs>
</svg>
