<svg width="57" height="36" viewBox="0 0 57 36" fill="none" xmlns="http://www.w3.org/2000/svg">
<g clip-path="url(#clip0_156_22)">
<rect width="57" height="36" rx="5" fill="white"/>
<rect x="0.38528" y="0.38528" width="56.2294" height="35.2294" rx="4.61472" stroke="#5F5FA7" stroke-opacity="0.37" stroke-width="0.770559"/>
<path d="M35.8305 7.23921C34.8817 6.31134 33.3604 6.32827 32.4326 7.27702L31.1243 8.61478C31.1358 8.62459 31.1472 8.63488 31.1582 8.64566L34.5284 11.9417C34.5394 11.9525 34.5499 11.9635 34.56 11.9749L35.8683 10.6371C36.7961 9.68837 36.7792 8.16707 35.8305 7.23921Z" fill="black"/>
<path d="M33.6882 12.8662C33.6766 12.8564 33.6653 12.8461 33.6543 12.8353L30.2842 9.53933C30.2731 9.52855 30.2626 9.51745 30.2525 9.50607L22.3522 17.5841C21.4243 18.5329 21.4413 20.0542 22.39 20.9821C23.3388 21.9099 24.86 21.893 25.788 20.9443L33.6882 12.8662Z" fill="black"/>
<path d="M37.2254 17.4372C37.5682 17.5676 37.5736 18.0488 37.2337 18.1867L36.3251 18.5555C36.2213 18.5976 36.1397 18.6807 36.0998 18.785L35.75 19.6983C35.6191 20.0398 35.1361 20.0452 34.9977 19.7067L34.6277 18.8014C34.5854 18.698 34.502 18.6168 34.3973 18.5769L33.4807 18.2285C33.1379 18.0982 33.1325 17.6169 33.4723 17.479L34.381 17.1103C34.4848 17.0681 34.5663 16.985 34.6063 16.8808L34.9561 15.9675C35.0869 15.6259 35.57 15.6205 35.7084 15.9591L36.0784 16.8644C36.1207 16.9677 36.2041 17.049 36.3087 17.0888L37.2254 17.4372Z" fill="black"/>
<path d="M31.5763 20.7229C31.9191 20.8532 31.9245 21.3345 31.5847 21.4724L31.2533 21.6068C31.1496 21.649 31.068 21.7321 31.0281 21.8364L30.9005 22.1693C30.7697 22.5109 30.2866 22.5162 30.1483 22.1777L30.0134 21.8477C29.9711 21.7443 29.8877 21.663 29.7831 21.6232L29.4488 21.4962C29.106 21.3659 29.1007 20.8846 29.4405 20.7467L29.7718 20.6123C29.8755 20.5701 29.9571 20.487 29.9971 20.3827L30.1246 20.0497C30.2554 19.7082 30.7385 19.7029 30.8769 20.0413L31.0118 20.3715C31.054 20.4748 31.1374 20.5561 31.2421 20.5959L31.5763 20.7229Z" fill="black"/>
<path d="M26.2911 8.41935C26.6339 8.54966 26.6393 9.03091 26.2995 9.16881L25.9682 9.30328C25.8644 9.34538 25.7828 9.42848 25.7429 9.53276L25.6154 9.86575C25.4846 10.2073 25.0015 10.2127 24.8632 9.87412L24.7282 9.54405C24.686 9.44069 24.6026 9.35943 24.4979 9.31964L24.1637 9.19258C23.8209 9.06227 23.8155 8.58103 24.1554 8.44312L24.4866 8.30866C24.5904 8.26655 24.672 8.18345 24.7119 8.07918L24.8395 7.74618C24.9703 7.40464 25.4533 7.39926 25.5917 7.73781L25.7266 8.06789C25.7689 8.17125 25.8523 8.25251 25.957 8.2923L26.2911 8.41935Z" fill="black"/>
<path d="M39.1094 23.8482L39.1094 21.7556L39.1094 19.663L40.7026 19.663C41.1843 19.663 41.5563 19.7606 41.8187 19.9559C42.0809 20.1512 42.2121 20.4275 42.2121 20.7846C42.2121 20.9836 42.1674 21.1613 42.0781 21.3175C41.9888 21.4719 41.8679 21.5928 41.7154 21.6803C41.9423 21.7547 42.1181 21.8756 42.2428 22.043C42.3674 22.2104 42.4297 22.4159 42.4297 22.6596C42.4297 22.9014 42.3711 23.1116 42.2539 23.2902C42.1367 23.4669 41.9702 23.6046 41.7545 23.7031C41.5387 23.7999 41.2839 23.8482 40.99 23.8482L40.0497 23.8482L39.1094 23.8482ZM40.2143 21.351L40.6272 21.351C40.7853 21.351 40.9072 21.3194 40.9927 21.2562C41.0802 21.1911 41.1239 21.099 41.1239 20.9799C41.1239 20.8702 41.0802 20.7837 40.9927 20.7204C40.9053 20.6572 40.7835 20.6256 40.6272 20.6256L40.2143 20.6256L40.2143 21.351ZM40.2143 22.8856L40.7026 22.8856C40.8291 22.8856 40.9369 22.8717 41.0262 22.8438C41.1155 22.814 41.1834 22.7722 41.2299 22.7182C41.2764 22.6624 41.2997 22.5955 41.2997 22.5173C41.2997 22.4392 41.2792 22.3741 41.2383 22.322C41.1974 22.2681 41.1369 22.2281 41.0569 22.202C40.9788 22.1741 40.883 22.1602 40.7695 22.1602L40.2143 22.1602L40.2143 22.8856Z" fill="black"/>
<path d="M50.0431 30.1644C52.0911 28.4319 52.9551 25.2874 53.0001 23.6464V23.3724C53.0001 23.0059 52.9091 22.7354 52.8206 22.5979C52.4106 22.0979 49.4046 21.6399 46.8126 22.4144C46.1153 22.6327 45.4553 22.9558 44.8551 23.3724C44.4001 23.6934 44.4911 24.0999 44.9466 24.0559C45.4466 23.9629 46.0846 23.9204 46.8126 23.8254C48.4056 23.6924 50.2711 23.6464 50.7256 24.2369C51.3606 25.0109 49.9976 28.3849 49.4041 29.8444C49.2246 30.3024 49.6331 30.4849 50.0431 30.1644ZM8.22561 23.6464C14.0946 28.9794 21.8296 32.1714 30.4771 32.1714C35.8466 32.1714 42.0331 30.6659 46.8126 27.7954C47.4604 27.4262 48.0833 27.0149 48.6771 26.5639C49.4971 25.9729 48.7691 25.0579 47.9496 25.4219C47.5856 25.5589 47.1761 25.7429 46.8136 25.8794C41.5776 27.9319 36.0756 28.8899 30.9776 28.8899C22.8771 28.8899 15.0516 26.6539 8.72611 22.9629C8.13411 22.6454 7.72361 23.2354 8.22561 23.6464Z" fill="black"/>
</g>
<defs>
<clipPath id="clip0_156_22">
<rect width="57" height="36" fill="white"/>
</clipPath>
</defs>
</svg>
